HIERARCHY
ROOT pelvis
{
  OFFSET 0 100 0
  CHANNELS 6 Xposition Yposition Zposition Zrotation Xrotation Yrotation
  JOINT pelvis_right_femur
  {
    OFFSET -10.78128 -3.44521 -0.5502486
    CHANNELS 3 Zrotation Xrotation Yrotation
    JOINT right_femur_tibia
    {
      OFFSET -0.8047443 -44.0398 -0.1307829
      CHANNELS 3 Zrotation Xrotation Yrotation
      JOINT right_tibia_foot
      {
        OFFSET 3.006224 -47.83518 -5
        CHANNELS 3 Zrotation Xrotation Yrotation
        End Site
        {
          OFFSET 0 -5 15
        }
      }
    }
  }
  JOINT pelvis_left_femur
  {
    OFFSET 10.78128 -3.44521 -0.5502486
    CHANNELS 3 Zrotation Xrotation Yrotation
    JOINT left_femur_tibia
    {
      OFFSET 0.8047443 -44.0398 -0.1307829
      CHANNELS 3 Zrotation Xrotation Yrotation
      JOINT left_tibia_foot
      {
        OFFSET -4.370144 -48.10324 -4.275266
        CHANNELS 3 Zrotation Xrotation Yrotation
        End Site
        {
          OFFSET 0 -5 15
        }
      }
    }
  }
  JOINT pelvis_spine1
  {
    OFFSET 0 6.468898 -3.129235
    CHANNELS 3 Zrotation Xrotation Yrotation
    JOINT spine1
    {
      OFFSET 0 23.15396 4.99043
      CHANNELS 3 Zrotation Xrotation Yrotation
      JOINT spine2
      {
        OFFSET 0 20.79997 -5.064912
        CHANNELS 3 Zrotation Xrotation Yrotation
        JOINT neck
        {
          OFFSET 0 14.38658 9.616178
          CHANNELS 3 Zrotation Xrotation Yrotation
          End Site
          {
            OFFSET 0 20 0
          }
        }
      }
      JOINT right_manubrium
      {
        OFFSET -5.722621 16.35077 3.967754
        CHANNELS 3 Zrotation Xrotation Yrotation
        JOINT right_clavicle
        {
          OFFSET -13.16364 1.694482 -4.693211
          CHANNELS 3 Zrotation Xrotation Yrotation
          JOINT right_humerus
          {
            OFFSET -28.5034 -0.3100689 -2.792744
            CHANNELS 3 Zrotation Xrotation Yrotation
            JOINT right_radius
            {
              OFFSET -25.15693 0.02248979 -1.271978
              CHANNELS 3 Zrotation Xrotation Yrotation
              End Site
              {
                OFFSET -15 0 0
              }
            }
          }
        }
      }
      JOINT left_manubrium
      {
        OFFSET 5.722621 16.35077 3.967754
        CHANNELS 3 Zrotation Xrotation Yrotation
        JOINT left_clavicle
        {
          OFFSET 13.16364 1.694482 -4.693211
          CHANNELS 3 Zrotation Xrotation Yrotation
          JOINT left_humerus
          {
            OFFSET 29.39168 -1.063119 -2.237045
            CHANNELS 3 Zrotation Xrotation Yrotation
            JOINT left_radius
            {
              OFFSET 24.59957 -0.9528479 0.9047498
              CHANNELS 3 Zrotation Xrotation Yrotation
              End Site
              {
                OFFSET 15 -0 -0
              }
            }
          }
        }
      }
    }
  }
}
MOTION
Frames: 23
Frame Time: 0.0416666666667
31.21909 101.0204 260.3812 -0.09835312 -0.8357773 0.8839632 4.130182 9.790144 5.96373 -0 31.82314 -0 5.591466 -14.28913 -7.010867 -0.3272115 -32.86088 -7.472552 -0 26.80663 -0 -9.413812 -6.856039 17.06201 0.8286946 -5.784513 7.811841 -2.441029 9.235309 -1.647353 1.741741 19.91782 5.720957 2.787825 -18.80072 5.986695 4.125779 -20.64371 12.38719 78.73755 23.42833 -3.443065 -0 0 21.16237 -24.4731 9.950465 14.38978 1.855192 -14.62333 -3.562235 -90.505 19.9581 24.57371 0 0 -10.16396 -3.477529 9.281527 14.58874
32.25084 101.4002 267.1288 -0.1030729 -0.8621725 0.6619594 3.718136 8.195417 5.064557 -0 39.27854 -0 8.261209 -11.68822 -6.983986 -1.318648 -29.91387 -8.446484 -0 28.72237 -0 -8.964445 -7.249837 16.69662 0.4823162 -6.461338 7.879774 -2.206564 8.961317 -1.494638 1.896029 20.2649 5.762314 2.776293 -18.69726 6.270326 4.436879 -19.60119 12.13703 79.951 23.53704 -4.89696 -0 0 19.44206 -24.15313 10.04053 14.04395 1.822679 -14.24104 -3.567296 -89.97662 20.15159 23.77118 0 0 -10.16227 -3.728239 9.103939 14.89468
33.23713 102.4455 274.0965 -0.09277633 -0.8027219 1.139385 3.190738 2.750587 4.072192 -0 47.38566 -0 9.917398 -12.43581 -6.893965 -2.279754 -26.23506 -9.125604 -0 29.25235 -0 -8.232589 -8.862604 16.37688 0.1320748 -7.491805 7.568151 -1.987241 8.930089 -1.574282 1.976484 20.85823 5.856206 2.725877 -18.58581 6.590908 5.041829 -18.33329 11.7472 81.36926 23.73143 -6.897997 -0 0 17.20325 -23.62167 10.18423 13.55868 1.61247 -14.13338 -3.601004 -88.86364 20.47505 22.48495 0 0 -10.27129 -3.837951 8.959455 14.98551
34.20515 103.1996 280.0098 -0.07677981 -0.7049837 1.924652 2.868039 -1.884128 3.677831 -0 54.56417 -0 9.952621 -10.31534 -7.600897 -2.997904 -21.87729 -9.560807 -0 28.53793 -0 -7.444235 -10.97132 15.99023 -0.008120254 -7.71046 6.79809 -1.848574 8.735105 -1.906519 2.013391 21.39681 6.046104 2.638257 -18.39405 7.00979 5.343053 -17.50998 11.5796 82.52142 23.96411 -8.46493 -0 0 15.26864 -23.00009 10.29323 13.149 1.413123 -14.46041 -3.913985 -87.37984 20.86771 20.31981 0 0 -10.73695 -3.838794 8.854133 14.92781
35.07126 104.3085 285.8865 -0.06840391 -0.6489617 2.372193 2.613068 -8.190261 3.46418 -0 58.52436 -0 9.366081 -9.355182 -8.274238 -3.378032 -17.45834 -9.909333 -0 27.1184 -0 -6.893133 -12.73211 15.63764 -0.2854 -8.020085 5.704354 -1.702209 8.51812 -2.611344 1.819859 21.82867 6.363015 2.425569 -18.26998 7.403011 5.668649 -16.67404 11.33009 83.7954 24.11976 -10.09904 -0 0 13.62008 -22.27255 10.32459 12.79772 1.302195 -14.70569 -4.39069 -85.78395 21.28151 17.81681 0 0 -11.19331 -3.829369 8.777217 14.85172
35.88456 105.35 291.0402 -0.05735804 -0.5709255 2.9978 2.564728 -14.83513 3.37375 -0 58.45962 -0 8.670513 -8.568833 -8.84304 -3.644848 -13.08677 -10.29477 -0 25.09415 -0 -6.566528 -14.20137 15.13443 -0.5741242 -8.065115 4.493234 -1.510417 8.337301 -3.519433 1.761774 22.43632 6.645554 2.281571 -17.93335 7.87404 5.526958 -16.12917 10.96784 84.71804 24.14414 -11.44741 -0 0 12.64097 -21.57429 10.20757 12.63098 1.321089 -15.36133 -5.078115 -83.98431 21.68447 14.79249 0 0 -11.87166 -3.76882 8.741738 14.63863
36.6758 106.0431 296.1494 -0.0397334 -0.4345064 4.095722 2.209212 -19.99268 3.420053 -0 54.87742 -0 7.943012 -7.399242 -9.726943 -3.691049 -8.616315 -10.76482 -0 22.64721 -0 -6.358571 -15.67175 14.40259 -0.9686788 -7.860545 3.111865 -1.194347 8.0877 -4.995584 1.860551 22.83546 6.803474 2.200472 -17.64607 8.315455 4.957253 -15.69014 10.36878 85.37874 24.02386 -12.66975 -0 0 12.19801 -20.90125 9.938655 12.60718 1.53684 -15.98023 -6.010197 -82.13594 22.08604 11.59545 0 0 -12.60811 -3.72655 8.777132 14.31179
37.36949 106.1609 301.2368 -0.01707172 -0.2217408 5.811806 2.1279 -24.22261 4.025274 -0 48.16769 -0 6.995848 -6.042509 -10.54258 -3.662676 -4.477951 -11.14537 -0 20.4391 -0 -6.204403 -17.23793 13.68584 -1.272012 -7.753984 2.039258 -0.852102 7.849057 -6.360123 2.078159 23.10198 6.786826 2.166366 -17.43196 8.632278 4.129458 -15.03688 9.602131 85.87326 23.81149 -14.01353 -0 0 11.79824 -20.14586 9.57432 12.55157 1.875119 -16.67246 -6.665234 -80.31557 22.37879 8.275413 0 0 -13.66579 -3.612185 8.917678 13.82309
38.03701 105.7519 306.8034 -0.002687586 -0.04146095 7.266587 1.516974 -28.95962 4.61461 -0 39.06683 -0 5.984792 -5.067319 -11.92224 -3.523059 -0.4283443 -11.48323 -0 18.98841 -0 -6.106199 -18.9367 13.13075 -1.469697 -7.881069 1.387645 -0.5116679 7.618799 -7.364801 2.369539 23.26495 6.624447 2.16102 -17.32111 8.822896 3.334893 -14.26564 8.915733 86.2824 23.58821 -15.35998 -0 0 11.09893 -19.18948 9.187953 12.31374 2.233633 -17.33003 -7.049642 -78.59738 22.57528 5.106554 0 0 -14.89557 -3.385984 9.193433 13.17302
38.50483 104.9465 312.0818 -0.00491178 -0.07270482 7.013271 0.6171438 -30.65715 4.341556 -0 28.52662 -0 4.759577 -5.221898 -12.48113 -3.420191 3.070786 -12.01056 -0 18.70782 -0 -6.12994 -20.56161 12.77233 -1.516209 -7.323337 1.506099 -0.1260107 7.599765 -7.612125 2.553422 23.45974 6.384697 2.099414 -17.19285 8.813351 2.913896 -13.64633 8.701511 86.68581 23.45511 -16.39576 -0 0 9.787089 -17.85724 8.852328 11.69088 2.752285 -18.14409 -7.15792 -76.83626 22.6528 2.064412 0 0 -16.28936 -3.000067 9.582833 12.34607
38.94121 103.7672 317.9966 0.0005529746 0.008887523 7.673397 0.2223951 -33.57205 4.620308 -0 21.15475 -0 3.41604 -5.914681 -13.03136 -3.244233 6.374806 -12.33551 -0 19.25546 -0 -6.300512 -21.87826 12.42346 -1.462183 -7.686128 1.593018 0.1795601 7.324918 -7.683428 2.762422 23.25842 6.273223 2.043842 -17.48959 8.98647 2.67713 -12.52483 8.549705 87.38928 23.29531 -17.86798 -0 0 7.536794 -16.1041 8.543795 10.60982 2.968407 -18.68077 -7.302809 -75.63669 22.69228 -0.3298641 0 0 -17.44818 -2.598509 10.01142 11.48628
39.34012 102.6845 323.4667 0.003013986 0.05055763 8.011208 0.9501996 -34.45292 4.162061 -0 16.50767 -0 1.894232 -7.167433 -14.03387 -3.040644 8.99416 -12.25203 -0 20.70563 -0 -6.718844 -22.37213 12.03634 -1.224161 -7.382749 1.682664 0.4025103 7.11978 -7.442671 2.889257 23.28515 6.108747 1.976174 -17.70375 9.010065 2.715993 -12.28922 8.886168 87.50528 23.32744 -18.28305 -0 0 5.522939 -14.34353 8.268566 9.584154 3.08067 -19.27819 -7.423441 -74.82201 22.69036 -2.198602 0 0 -18.3992 -2.187803 10.45879 10.62246
39.54733 101.8306 329.7937 0.008419767 0.1620305 8.915432 1.415842 -33.66357 4.263716 -0 17.44911 -0 0.8110012 -7.359642 -14.9005 -2.493649 11.08575 -12.12144 -0 23.43419 -0 -7.378858 -21.67784 11.70172 -1.15266 -7.877743 1.451149 0.5719629 7.165968 -7.376974 2.932466 23.45297 5.940585 1.900835 -17.8971 8.9367 2.992122 -11.81795 8.876801 87.84242 23.27345 -18.68038 -0 0 3.649353 -12.75715 7.957305 8.777933 3.157918 -19.37551 -7.226481 -74.76592 22.7566 -2.935885 0 0 -18.82266 -1.86104 10.88982 9.900506
39.69113 101.2493 336.6503 0.01265405 0.2983078 10.0216 2.604255 -32.66356 5.136057 -0 20.66331 -0 0.2578318 -6.725907 -14.8143 -1.859969 12.18501 -11.87389 -0 28.03001 -0 -8.13524 -19.64225 11.77301 -1.11674 -8.934327 1.038277 0.6436506 7.262716 -7.483881 2.920094 23.70453 5.785193 1.833688 -18.04762 8.802795 3.162576 -11.18707 8.525158 88.12701 23.13356 -18.9201 -0 0 2.240845 -11.48965 7.565459 8.382874 3.307324 -19.06198 -6.731796 -75.40653 22.94831 -2.615817 0 0 -18.64927 -1.664588 11.34388 9.388055
39.77965 101.2043 343.3822 0.01340501 0.3397123 10.35916 3.197702 -31.49565 5.680831 -0 24.87215 -0 -0.3059893 -6.473744 -14.55028 -1.642393 11.60073 -11.21236 -0 35.03108 -0 -8.699521 -16.63791 12.52725 -0.9595961 -9.887269 0.7859448 0.7186798 7.495829 -7.578935 2.804425 24.01114 5.693675 1.738609 -18.19927 8.64648 3.301268 -10.52415 8.007238 88.04507 22.9677 -18.90377 -0 0 1.389771 -10.6634 7.065647 8.438634 3.348938 -18.46318 -6.061399 -76.68557 23.25195 -1.360891 0 0 -17.7281 -1.719552 11.75404 9.181754
40.00019 102.0475 350.17 0.01278371 0.3060087 10.08704 4.011868 -29.54078 6.392647 -0 28.51791 -0 -1.19443 -7.30451 -13.97918 -0.9426287 7.941155 -10.35242 -0 43.62102 -0 -8.250764 -14.8065 14.49442 -0.7860424 -10.66517 0.8493942 0.7033775 7.758012 -7.420273 2.833269 24.43589 5.465914 1.726594 -18.50196 8.447832 3.637024 -10.40024 7.927685 87.68754 22.90938 -17.89139 -0 0 1.482541 -10.02052 6.572119 8.397374 3.058429 -17.52095 -5.559759 -78.50488 23.61332 0.68798 0 0 -16.02183 -2.025703 12.12545 9.293691
40.07561 102.7152 356.2873 0.01230669 0.2858909 9.924506 4.98264 -26.33758 7.355665 -0 30.58678 -0 -2.269994 -8.935298 -13.33591 -1.829175 2.086319 -8.903645 -0 52.4894 -0 -7.857713 -12.66037 16.50388 -0.6874304 -11.23599 1.243985 0.6511932 7.845892 -7.064498 3.018988 24.97788 5.00622 1.80929 -18.70039 8.072713 3.933507 -10.84419 8.309465 86.72977 23.00339 -16.16342 -0 0 2.071272 -9.526391 6.104238 8.463198 2.630102 -16.70726 -5.377673 -80.38749 23.95694 2.638457 0 0 -13.96333 -2.536756 12.48178 9.607474
40.28001 103.7496 361.8719 0.01044748 0.2195843 9.385899 5.352625 -22.17128 8.159238 -0 30.66212 -0 -3.155819 -10.46619 -12.51313 -1.725845 -4.308017 -8.36566 -0 59.34819 -0 -7.124776 -11.15871 18.56107 -0.4057827 -11.3608 2.069946 0.5581635 7.81898 -6.409136 3.40057 25.29554 4.307778 1.991259 -19.06916 7.542566 4.280325 -11.12941 9.143395 85.68537 23.04611 -14.15562 -0 0 2.798702 -9.356661 5.576657 8.730448 2.113228 -16.17029 -5.346478 -82.38144 24.22512 4.626709 0 0 -11.74886 -3.16955 12.83024 10.03202
40.54259 105.0667 367.3754 0.005242248 0.09297249 8.35702 5.841164 -17.6169 8.067465 -0 28.54741 -0 -3.606217 -11.77509 -11.85732 -1.904656 -11.2785 -7.629431 -0 63.13108 -0 -6.521371 -9.643288 20.15359 -0.0422632 -11.39722 3.223202 0.3351021 7.835621 -5.270962 3.570439 25.85355 3.837578 2.083724 -19.09895 7.102466 4.468767 -11.57218 9.968575 84.54098 23.03469 -11.84424 -0 0 3.745185 -9.459198 5.016971 9.199713 1.891604 -15.67077 -5.080898 -84.51105 24.32802 6.82474 0 0 -9.663862 -3.818655 13.16268 10.43052
40.79048 106.0389 372.3799 -0.001265594 -0.01973486 7.44107 5.560548 -12.49074 7.9949 -0 25.47297 -0 -3.887092 -13.09293 -10.74443 -1.943302 -17.35732 -6.85645 -0 61.51209 -0 -6.295692 -8.634192 21.24932 0.5589775 -10.8364 4.349484 0.01655727 7.758455 -3.913437 3.374952 26.12151 3.617495 1.96284 -19.08563 6.657063 4.385612 -11.89929 10.90997 83.26427 22.96078 -9.486998 -0 0 4.790408 -9.785905 4.42496 9.829021 2.125766 -15.40408 -4.805676 -86.36365 24.23975 8.918538 0 0 -7.970867 -4.352108 13.4931 10.65999
41.14189 106.529 377.1587 -0.01790071 -0.2276551 5.750835 5.384568 -7.858944 7.125991 -0 21.49135 -0 -4.008039 -14.56142 -9.711918 -1.77063 -22.42216 -6.322018 -0 55.34696 -0 -5.946228 -8.310089 22.23971 1.085846 -9.41141 5.325657 -0.388409 7.342634 -2.711722 3.043355 26.26427 3.512708 1.75008 -19.03621 6.250144 3.984452 -12.9294 11.75444 81.75958 22.93754 -6.501732 -0 0 6.490452 -10.56574 3.949736 10.94419 2.58382 -14.9019 -4.425296 -88.29195 23.94705 11.16851 0 0 -6.580244 -4.629407 13.80633 10.77741
41.47623 106.4972 381.9815 -0.03307055 -0.3730352 4.568654 5.123488 -3.293604 6.427727 -0 18.63583 -0 -4.204289 -15.98331 -8.712593 -1.148196 -25.73427 -6.28654 -0 46.4301 -0 -5.460544 -8.54757 23.3538 1.417779 -8.593843 6.125604 -0.8192224 6.587745 -1.659629 2.687906 26.14025 3.811872 1.558829 -19.21508 6.347802 3.352235 -13.57274 11.85436 80.58006 22.8514 -4.06358 -0 0 8.261468 -11.7129 3.533292 12.37206 3.151468 -14.55956 -3.699148 -89.73428 23.57514 13.41274 0 0 -5.215424 -4.760651 14.13283 10.80415
41.91715 105.8182 386.9897 -0.0396105 -0.4292328 4.113451 4.863386 0.9638849 5.671176 -0 16.64279 -0 -4.400672 -17.31537 -7.867452 -0.01994928 -28.47025 -5.941101 -0 34.59025 -0 -5.085628 -8.674763 24.79247 1.33037 -7.863972 6.177397 -1.046933 5.888598 -1.493963 2.304947 26.12095 4.185254 1.372678 -19.32627 6.511348 2.705452 -14.64176 11.54026 79.47793 22.82615 -1.561237 -0 0 10.16551 -12.99937 3.202438 13.76023 3.807199 -13.98984 -3.220417 -91.09618 23.15211 15.59692 0 0 -3.909033 -4.809871 14.49787 10.78203
